<?xml version="1.0" encoding="UTF-8"?>
<svg id="Layer_2" data-name="Layer 2" xmlns="http://www.w3.org/2000/svg" viewBox="0 0 302.09 302.09">
  <defs>
    <style>
      .cls-1 {
        fill: #fff;
      }
    </style>
  </defs>
  <g id="Layer_1-2" data-name="Layer 1">
    <path class="cls-1" d="M151.04,5c39.01,0,75.68,15.19,103.27,42.78,27.58,27.58,42.78,64.26,42.78,103.27s-15.19,75.68-42.78,103.27c-27.58,27.58-64.26,42.78-103.27,42.78s-75.68-15.19-103.27-42.78C20.19,226.73,5,190.05,5,151.04s15.19-75.68,42.78-103.27C75.36,20.19,112.03,5,151.04,5M151.04,0C67.62,0,0,67.62,0,151.04s67.62,151.04,151.04,151.04,151.04-67.62,151.04-151.04S234.46,0,151.04,0h0Z"/>
  </g>
</svg>